<svg width="100%" viewBox="0 0 680 430" xmlns="http://www.w3.org/2000/svg">
  <defs>
    <radialGradient id="hg1" cx="50%" cy="50%" r="50%">
      <stop offset="0%" stop-color="#1D9E75" stop-opacity="0.22"/>
      <stop offset="100%" stop-color="#1D9E75" stop-opacity="0"/>
    </radialGradient>
    <radialGradient id="hg2" cx="50%" cy="50%" r="50%">
      <stop offset="0%" stop-color="#534AB7" stop-opacity="0.18"/>
      <stop offset="100%" stop-color="#534AB7" stop-opacity="0"/>
    </radialGradient>
    <radialGradient id="hg3" cx="50%" cy="50%" r="50%">
      <stop offset="0%" stop-color="#185FA5" stop-opacity="0.16"/>
      <stop offset="100%" stop-color="#185FA5" stop-opacity="0"/>
    </radialGradient>
    <radialGradient id="hg4" cx="50%" cy="50%" r="50%">
      <stop offset="0%" stop-color="#BA7517" stop-opacity="0.13"/>
      <stop offset="100%" stop-color="#BA7517" stop-opacity="0"/>
    </radialGradient>
  </defs>

  <rect x="0" y="0" width="680" height="420" fill="#fafafb" rx="12" style="fill:rgb(250, 250, 251);stroke:none;color:rgb(0, 0, 0);stroke-width:1px;stroke-linecap:butt;stroke-linejoin:miter;opacity:1;"/>

  <!-- Glow pools -->
  <ellipse cx="340" cy="200" rx="180" ry="160" fill="url(#hg1)" style="stroke:none;opacity:1;"/>
  <ellipse cx="180" cy="150" rx="120" ry="100" fill="url(#hg2)" style="stroke:none;opacity:1;"/>
  <ellipse cx="500" cy="150" rx="120" ry="100" fill="url(#hg3)" style="stroke:none;opacity:1;"/>
  <ellipse cx="340" cy="320" rx="100" ry="80" fill="url(#hg4)" style="stroke:none;opacity:1;"/>

  <!-- Outer micro nodes -->
  <circle cx="80" cy="100" r="2.5" fill="#534AB7" opacity="0.3" style="fill:rgb(83, 74, 183);"/>
  <circle cx="110" cy="290" r="2" fill="#1D9E75" opacity="0.28" style="fill:rgb(29, 158, 117);"/>
  <circle cx="60" cy="210" r="2" fill="#185FA5" opacity="0.25" style="fill:rgb(24, 95, 165);"/>
  <circle cx="600" cy="90" r="2.5" fill="#185FA5" opacity="0.3" style="fill:rgb(24, 95, 165);"/>
  <circle cx="620" cy="270" r="2" fill="#534AB7" opacity="0.25" style="fill:rgb(83, 74, 183);"/>
  <circle cx="640" cy="180" r="2" fill="#1D9E75" opacity="0.22" style="fill:rgb(29, 158, 117);"/>
  <circle cx="200" cy="370" r="2" fill="#BA7517" opacity="0.28" style="fill:rgb(186, 117, 23);"/>
  <circle cx="460" cy="375" r="2.5" fill="#BA7517" opacity="0.3" style="fill:rgb(186, 117, 23);"/>
  <circle cx="340" cy="50" r="2" fill="#1D9E75" opacity="0.25" style="fill:rgb(29, 158, 117);"/>

  <!-- Mid-tier nodes -->
  <circle cx="180" cy="130" r="6" fill="#534AB7" opacity="0.5" style="fill:rgb(83, 74, 183);"/>
  <circle cx="180" cy="270" r="5" fill="#1D9E75" opacity="0.45" style="fill:rgb(29, 158, 117);"/>
  <circle cx="500" cy="130" r="6" fill="#185FA5" opacity="0.5" style="fill:rgb(24, 95, 165);"/>
  <circle cx="500" cy="270" r="5" fill="#185FA5" opacity="0.42" style="fill:rgb(24, 95, 165);"/>
  <circle cx="260" cy="320" r="5" fill="#BA7517" opacity="0.45" style="fill:rgb(186, 117, 23);"/>
  <circle cx="420" cy="320" r="5" fill="#BA7517" opacity="0.45" style="fill:rgb(186, 117, 23);"/>
  <circle cx="260" cy="88" r="4" fill="#1D9E75" opacity="0.38" style="fill:rgb(29, 158, 117);"/>
  <circle cx="420" cy="88" r="4" fill="#534AB7" opacity="0.38" style="fill:rgb(83, 74, 183);"/>

  <!-- Center node -->
  <circle cx="340" cy="200" r="12" fill="#1D9E75" opacity="0.85" style="fill:rgb(29, 158, 117);"/>
</svg>
